<svg width="48" height="33" viewBox="0 0 48 33" fill="none" xmlns="http://www.w3.org/2000/svg">
<path d="M24 0.5C30.4348 0.5 36.3156 4.39291 40.6318 8.36816C42.781 10.3475 44.5221 12.328 45.7256 13.8145C46.3269 14.5572 46.793 15.1758 47.1084 15.6074C47.2224 15.7634 47.3159 15.8958 47.3896 16C47.3159 16.1042 47.2224 16.2366 47.1084 16.3926C46.793 16.8242 46.3269 17.4428 45.7256 18.1855C44.5221 19.672 42.781 21.6525 40.6318 23.6318C36.3156 27.6071 30.4348 31.5 24 31.5C17.5652 31.5 11.6844 27.6071 7.36816 23.6318C5.21904 21.6525 3.4779 19.672 2.27441 18.1855C1.67305 17.4428 1.20701 16.8242 0.891602 16.3926C0.777428 16.2363 0.683138 16.1043 0.609375 16C0.683138 15.8957 0.777428 15.7637 0.891602 15.6074C1.20701 15.1758 1.67305 14.5572 2.27441 13.8145C3.4779 12.328 5.21904 10.3475 7.36816 8.36816C11.6844 4.39291 17.5652 0.5 24 0.5Z" stroke="white"/>
<path d="M23.9999 0.513351C32.5603 0.513352 39.4999 7.45294 39.4999 16.0134C39.4999 24.5738 32.5603 31.5134 23.9999 31.5134C15.4395 31.5133 8.49988 24.5738 8.49988 16.0133" stroke="white"/>
<path d="M32.4999 16C32.4999 20.6944 28.6943 24.5 23.9999 24.5C19.3055 24.5 15.4999 20.6944 15.4999 16C15.4999 11.3056 19.3055 7.5 23.9999 7.5" stroke="white"/>
<circle cx="24" cy="16.0133" r="1.50097" transform="rotate(-180 24 16.0133)" fill="white" stroke="white"/>
</svg>
