<svg width="51" height="12" viewBox="0 0 51 12" fill="none" xmlns="http://www.w3.org/2000/svg">
<path d="M47.1288 10.116V9.64802L47.0328 9.32402V3.19202C47.0328 2.45602 46.8208 1.89602 46.3968 1.51202C45.9728 1.12002 45.3848 0.924017 44.6328 0.924017C43.9368 0.924017 43.4088 1.06002 43.0488 1.33202C42.6968 1.60402 42.5208 1.92802 42.5208 2.30402V3.10802C42.5208 3.39602 42.4288 3.62002 42.2448 3.78002C42.0608 3.93202 41.8088 4.00802 41.4888 4.00802C41.2008 4.00802 40.9728 3.92402 40.8048 3.75602C40.6448 3.58002 40.5648 3.35602 40.5648 3.08402C40.5648 2.56402 40.7488 2.07202 41.1168 1.60802C41.4848 1.14402 42.0048 0.764017 42.6768 0.468017C43.3568 0.172017 44.1688 0.0240173 45.1128 0.0240173C46.3048 0.0240173 47.1968 0.316017 47.7888 0.900017C48.3888 1.48402 48.6888 2.26002 48.6888 3.22802V9.81602C48.6888 10.008 48.7368 10.16 48.8328 10.272C48.9368 10.376 49.0728 10.428 49.2408 10.428C49.3688 10.428 49.4688 10.408 49.5408 10.368C49.6208 10.328 49.6888 10.28 49.7448 10.224C49.8008 10.168 49.8528 10.12 49.9008 10.08C49.9568 10.032 50.0208 10.008 50.0928 10.008C50.1888 10.008 50.2688 10.044 50.3328 10.116C50.4048 10.18 50.4408 10.276 50.4408 10.404C50.4408 10.596 50.3728 10.788 50.2368 10.98C50.1008 11.164 49.9128 11.316 49.6728 11.436C49.4328 11.556 49.1528 11.616 48.8328 11.616C48.3368 11.616 47.9288 11.492 47.6088 11.244C47.2888 10.988 47.1288 10.612 47.1288 10.116ZM39.9888 8.84402C39.9888 7.92402 40.4048 7.16402 41.2368 6.56402C42.0688 5.95602 43.1968 5.65202 44.6208 5.65202C45.1168 5.65202 45.6088 5.69602 46.0968 5.78402C46.5928 5.86402 47.0288 5.97202 47.4048 6.10802L47.2608 6.92402C46.8928 6.79602 46.4968 6.68802 46.0728 6.60002C45.6568 6.51202 45.2088 6.46802 44.7288 6.46802C43.8168 6.46802 43.0928 6.65602 42.5568 7.03202C42.0208 7.40802 41.7528 7.92802 41.7528 8.59202C41.7528 9.23202 41.9568 9.70802 42.3648 10.02C42.7728 10.332 43.2768 10.488 43.8768 10.488C44.5568 10.488 45.2048 10.324 45.8208 9.99602C46.4448 9.66002 46.9888 9.18402 47.4528 8.56802L47.7408 9.24002C47.2208 10 46.5688 10.588 45.7848 11.004C45.0088 11.412 44.1888 11.616 43.3248 11.616C42.3488 11.616 41.5488 11.38 40.9248 10.908C40.3008 10.428 39.9888 9.74002 39.9888 8.84402Z" fill="white"/>
<path d="M29.2882 0.732015V9.50401C29.2882 9.75201 29.3402 9.94002 29.4442 10.068C29.5562 10.196 29.7082 10.288 29.9002 10.344L30.4282 10.464C30.7242 10.56 30.8722 10.708 30.8722 10.908C30.8722 11.196 30.7002 11.34 30.3562 11.34H26.5402C26.3722 11.34 26.2402 11.304 26.1442 11.232C26.0482 11.152 26.0002 11.044 26.0002 10.908C26.0002 10.788 26.0402 10.692 26.1202 10.62C26.2002 10.548 26.3162 10.484 26.4682 10.428L27.0082 10.32C27.2002 10.264 27.3482 10.176 27.4522 10.056C27.5642 9.92802 27.6202 9.74402 27.6202 9.50401V2.48401C27.6202 2.26002 27.5762 2.10002 27.4882 2.00402C27.4082 1.90002 27.2882 1.84002 27.1282 1.82402L26.2042 1.80002C26.0682 1.77602 25.9602 1.72802 25.8802 1.65602C25.8082 1.58402 25.7722 1.49602 25.7722 1.39201C25.7722 1.28001 25.8122 1.18002 25.8922 1.09202C25.9802 1.00402 26.1082 0.936015 26.2762 0.888015L27.8242 0.384016C28.0002 0.320015 28.1682 0.264015 28.3282 0.216015C28.4882 0.160016 28.6242 0.132016 28.7362 0.132016C28.9122 0.132016 29.0482 0.184015 29.1442 0.288015C29.2402 0.392015 29.2882 0.540015 29.2882 0.732015ZM28.9162 3.37202L28.4122 2.83202L29.0722 2.20802C29.8722 1.48002 30.6322 0.932015 31.3522 0.564015C32.0722 0.188015 32.7682 1.52588e-05 33.4402 1.52588e-05C34.4242 1.52588e-05 35.2282 0.308015 35.8522 0.924016C36.4842 1.53202 36.8002 2.34001 36.8002 3.34802V9.50401C36.8002 9.74402 36.8522 9.92802 36.9562 10.056C37.0682 10.184 37.2202 10.272 37.4122 10.32L37.9282 10.428C38.0802 10.484 38.1962 10.548 38.2762 10.62C38.3642 10.692 38.4082 10.788 38.4082 10.908C38.4082 11.044 38.3602 11.152 38.2642 11.232C38.1682 11.304 38.0322 11.34 37.8562 11.34H34.0522C33.7002 11.34 33.5242 11.196 33.5242 10.908C33.5242 10.708 33.6762 10.56 33.9802 10.464L34.5082 10.344C34.7082 10.288 34.8602 10.196 34.9642 10.068C35.0762 9.94002 35.1322 9.75201 35.1322 9.50401V3.78002C35.1322 2.95602 34.9162 2.32802 34.4842 1.89602C34.0602 1.46402 33.5002 1.24802 32.8042 1.24802C32.3242 1.24802 31.8082 1.37602 31.2562 1.63202C30.7042 1.88802 30.1162 2.29602 29.4922 2.85602L28.9162 3.37202Z" fill="white"/>
<path d="M18.2472 0.5C21.1953 0.5 23.585 2.88984 23.5851 5.83789C23.5851 8.78599 21.1953 11.1758 18.2472 11.1758C15.2991 11.1757 12.9093 8.78595 12.9093 5.83789C12.9094 2.88988 15.2992 0.500062 18.2472 0.5Z" stroke="white"/>
<path d="M9.948 4.24801C9.948 4.67201 9.828 4.98801 9.588 5.19601C9.348 5.40401 9 5.50801 8.544 5.50801H0.888V4.65601H7.44C7.928 4.65601 8.172 4.44401 8.172 4.02001C8.172 3.15601 7.904 2.44001 7.368 1.87201C6.84 1.30401 6.136 1.02001 5.256 1.02001C4.544 1.02001 3.912 1.20401 3.36 1.57201C2.816 1.94001 2.392 2.45601 2.088 3.12001C1.784 3.78401 1.632 4.55601 1.632 5.43601C1.632 6.96401 2.02 8.14801 2.796 8.98801C3.58 9.82001 4.588 10.236 5.82 10.236C6.748 10.236 7.504 10.016 8.088 9.57601C8.672 9.13601 9.072 8.64401 9.288 8.10001C9.352 7.98801 9.416 7.90401 9.48 7.84801C9.544 7.78401 9.62 7.75601 9.708 7.76401C9.812 7.76401 9.888 7.80401 9.936 7.88401C9.984 7.95601 10.008 8.05601 10.008 8.18401C9.976 8.76801 9.764 9.32001 9.372 9.84001C8.98 10.36 8.448 10.784 7.776 11.112C7.104 11.44 6.328 11.604 5.448 11.604C4.32 11.604 3.348 11.364 2.532 10.884C1.724 10.396 1.1 9.72401 0.66 8.86801C0.22 8.01201 0 7.02801 0 5.91601C0 4.79601 0.228 3.79201 0.684 2.90401C1.148 2.01601 1.788 1.31201 2.604 0.792009C3.428 0.272009 4.384 0.0120087 5.472 0.0120087C6.336 0.0120087 7.104 0.192009 7.776 0.552009C8.448 0.912009 8.976 1.40801 9.36 2.04001C9.752 2.67201 9.948 3.40801 9.948 4.24801Z" fill="white"/>
</svg>
