<svg width="52" height="13" viewBox="0 0 52 13" fill="none" xmlns="http://www.w3.org/2000/svg">
<path d="M47.7343 11.056L47.7639 10.5759L47.687 10.2374L48.0754 3.94754C48.122 3.19258 47.9423 2.60457 47.5363 2.18348C47.1308 1.75419 46.5464 1.51542 45.7832 1.46718C45.0768 1.42253 44.5324 1.52816 44.1498 1.78407C43.7753 2.04049 43.5761 2.36155 43.5523 2.74723L43.5014 3.57193C43.4832 3.86735 43.3756 4.09121 43.1787 4.24353C42.9823 4.38764 42.7218 4.44943 42.397 4.4289C42.1047 4.41043 41.8786 4.30964 41.7188 4.12654C41.5675 3.93574 41.5005 3.70084 41.5177 3.42184C41.5507 2.88845 41.7686 2.39558 42.1715 1.94324C42.5743 1.4909 43.1262 1.13447 43.8269 0.87396C44.5358 0.61396 45.3693 0.514239 46.3274 0.574796C47.5372 0.651262 48.424 1.008 48.9878 1.64502C49.5598 2.28254 49.8151 3.09777 49.7538 4.09069L49.3365 10.8483C49.3244 11.0453 49.3635 11.2043 49.4538 11.3253C49.5528 11.4387 49.6875 11.5007 49.858 11.5115C49.9879 11.5197 50.0907 11.5056 50.1663 11.4692C50.25 11.4333 50.3221 11.3884 50.3825 11.3346C50.4428 11.2807 50.4987 11.2348 50.5499 11.1969C50.6098 11.1512 50.6763 11.1307 50.7493 11.1353C50.8468 11.1415 50.9257 11.1836 50.9861 11.2615C51.0551 11.3318 51.0855 11.4326 51.0774 11.5639C51.0653 11.7608 50.9841 11.9534 50.8339 12.1416C50.6842 12.3216 50.4838 12.4655 50.2326 12.5732C49.9814 12.6809 49.6935 12.7244 49.3687 12.7039C48.8653 12.6721 48.4591 12.5187 48.15 12.2438C47.8414 11.9607 47.7029 11.5648 47.7343 11.056ZM40.5683 9.2932C40.6266 8.34951 41.0969 7.59663 41.9794 7.03455C42.8623 6.46427 44.0264 6.2248 45.4716 6.31615C45.975 6.34797 46.4715 6.42466 46.9613 6.54623C47.4596 6.66011 47.8952 6.79886 48.2682 6.96248L48.0704 7.79026C47.705 7.63536 47.31 7.49917 46.8852 7.38171C46.4686 7.26475 46.0167 7.19088 45.5295 7.16009C44.6039 7.10159 43.8572 7.24798 43.2894 7.59928C42.7216 7.95058 42.4167 8.46678 42.3746 9.14787C42.3341 9.80435 42.511 10.3057 42.9053 10.6519C43.2996 10.9981 43.8013 11.1905 44.4102 11.2289C45.1003 11.2726 45.7684 11.1459 46.4144 10.849C47.069 10.5444 47.6512 10.091 48.1612 9.48891L48.4109 10.1967C47.835 10.9429 47.136 11.5042 46.314 11.8806C45.5006 12.2494 44.6554 12.406 43.7785 12.3506C42.788 12.288 41.991 11.9946 41.3876 11.4704C40.7847 10.938 40.5116 10.2123 40.5683 9.2932Z" fill="white"/>
<path d="M29.9009 0.780537L29.6938 9.79351C29.6879 10.0483 29.7363 10.2427 29.839 10.3767C29.9499 10.5109 30.1022 10.6091 30.2961 10.6712L30.83 10.8072C31.1287 10.9129 31.2757 11.0685 31.2709 11.274C31.2641 11.5699 31.0859 11.7137 30.7362 11.7055L26.8567 11.6142C26.6859 11.6102 26.5526 11.5701 26.4567 11.4938C26.361 11.4093 26.3148 11.2972 26.318 11.1574C26.3208 11.0341 26.3637 10.9365 26.4468 10.8644C26.5298 10.7923 26.6492 10.7294 26.8051 10.6755L27.3566 10.5774C27.5531 10.5245 27.7057 10.4376 27.8142 10.3168C27.9311 10.1879 27.9924 10.0002 27.998 9.75362L28.1638 2.54077C28.1691 2.31062 28.1281 2.14517 28.0409 2.04443C27.9621 1.93566 27.8415 1.87114 27.6792 1.85087L26.7404 1.80412C26.6027 1.7762 26.4941 1.7243 26.4144 1.64841C26.3429 1.57271 26.3084 1.48143 26.3109 1.37458C26.3135 1.2595 26.3566 1.15771 26.44 1.0692C26.5315 0.980892 26.6632 0.914085 26.8352 0.868785L28.4208 0.387963C28.6012 0.326414 28.7733 0.272894 28.9371 0.227402C29.1011 0.173691 29.24 0.148174 29.3539 0.150853C29.5328 0.155063 29.6699 0.211743 29.765 0.320896C29.8601 0.430049 29.9054 0.583263 29.9009 0.780537ZM29.4604 3.48416L28.9608 2.91728L29.6465 2.29192C30.4769 1.56305 31.2625 1.01818 32.0032 0.657287C32.744 0.288178 33.456 0.111661 34.1392 0.127733C35.1395 0.151267 35.9496 0.486958 36.5695 1.1348C37.1976 1.77462 37.4998 2.61238 37.476 3.64807L37.3306 9.97318C37.3249 10.2198 37.3735 10.4101 37.4762 10.5441C37.587 10.6783 37.7395 10.7723 37.9335 10.8262L38.4555 10.9495C38.6087 11.0107 38.7252 11.0792 38.8048 11.1551C38.8926 11.2312 38.935 11.3309 38.9322 11.4542C38.929 11.5939 38.8776 11.7038 38.7781 11.7837C38.6788 11.8553 38.5397 11.8891 38.3608 11.8849L34.4936 11.7939C34.1357 11.7855 33.9602 11.6333 33.967 11.3374C33.9717 11.1319 34.1298 10.9835 34.4411 10.8921L34.9807 10.7814C35.1853 10.7287 35.342 10.6378 35.4508 10.5088C35.5677 10.3799 35.629 10.1881 35.6349 9.93329L35.7701 4.05204C35.7895 3.20541 35.5847 2.55499 35.1558 2.10079C34.7349 1.64678 34.1707 1.41145 33.4632 1.39481C32.9752 1.38333 32.4476 1.5025 31.8804 1.75233C31.3131 2.00216 30.7057 2.40731 30.0581 2.96777L29.4604 3.48416Z" fill="white"/>
<path d="M18.4616 0.500602C21.401 0.450475 23.833 2.81925 23.8831 5.80305C23.9331 8.78697 21.5817 11.2385 18.6422 11.2891C15.7025 11.3395 13.2696 8.96979 13.2197 5.98573C13.1699 3.00179 15.522 0.550962 18.4616 0.500602Z" stroke="white"/>
<path d="M10.0092 4.64964C10.0356 5.08459 9.93351 5.41632 9.70286 5.64482C9.47222 5.87333 9.12548 6.00196 8.66265 6.03071L0.891939 6.51353L0.838891 5.63953L7.48906 5.22634C7.98437 5.19557 8.21883 4.96271 8.19243 4.52776C8.13863 3.64145 7.82204 2.92387 7.24264 2.37501C6.67136 1.82564 5.93913 1.57871 5.04595 1.6342C4.32328 1.6791 3.69327 1.90771 3.15591 2.32002C2.62667 2.73183 2.22845 3.28789 1.96123 3.9882C1.69402 4.68851 1.58781 5.49003 1.6426 6.39275C1.73774 7.9602 2.20527 9.1503 3.0452 9.96304C3.89275 10.7671 4.94176 11.1303 6.19221 11.0526C7.13412 10.994 7.88775 10.7207 8.4531 10.2325C9.01846 9.7443 9.39381 9.21438 9.57918 8.64271C9.63717 8.52378 9.69689 8.43358 9.75837 8.3721C9.81934 8.30241 9.89474 8.26889 9.98455 8.27155C10.0901 8.26499 10.1697 8.30123 10.2234 8.38027C10.2766 8.4511 10.3072 8.55217 10.3152 8.68347C10.3191 9.28457 10.1383 9.86419 9.77278 10.4223C9.40728 10.9805 8.89371 11.449 8.23206 11.8278C7.57042 12.2067 6.793 12.4238 5.89982 12.4793C4.75492 12.5505 3.75341 12.3656 2.8953 11.9246C2.04481 11.475 1.36962 10.825 0.869727 9.97465C0.369838 9.1243 0.0852747 8.12877 0.0160382 6.98806C-0.0536963 5.83915 0.115208 4.79485 0.52275 3.85517C0.938413 2.91498 1.54417 2.15245 2.34002 1.56756C3.14399 0.982171 4.09812 0.65517 5.20242 0.586557C6.07937 0.53207 6.87008 0.668285 7.57457 0.9952C8.27905 1.32212 8.84584 1.79762 9.27495 2.42172C9.71217 3.04532 9.95693 3.78796 10.0092 4.64964Z" fill="white"/>
</svg>
