<svg width="32" height="32" viewBox="0 0 32 32" fill="none" xmlns="http://www.w3.org/2000/svg">
<rect width="32" height="32" rx="16" fill="#E34E2A"/>
<path d="M16 7.5C20.6944 7.5 24.5 11.3056 24.5 16C24.5 20.6944 20.6944 24.5 16 24.5C11.3056 24.5 7.5 20.6944 7.5 16H8.5C8.5 20.1421 11.8579 23.5 16 23.5C20.1421 23.5 23.5 20.1421 23.5 16C23.5 11.8579 20.1421 8.5 16 8.5C13.9616 8.50006 12.114 9.31282 10.7617 10.6328L10.4121 10.2754L10.0625 9.91699C11.594 8.42191 13.6901 7.50006 16 7.5ZM9.55078 10.4668C9.71392 10.2769 9.88349 10.0927 10.0625 9.91797L10.4121 10.2754L10.7607 10.6328C10.5865 10.8029 10.4207 10.9816 10.2637 11.168H13.0508V12.168H8.55078V7.66797H9.55078V10.4668Z" fill="black"/>
</svg>
