<svg width="40" height="40" viewBox="0 0 40 40" fill="none" xmlns="http://www.w3.org/2000/svg">
<rect width="40" height="40" rx="20" fill="#E34E2A"/>
<path d="M20 11.5C24.6944 11.5 28.5 15.3056 28.5 20C28.5 24.6944 24.6944 28.5 20 28.5C15.3056 28.5 11.5 24.6944 11.5 20H12.5C12.5 24.1421 15.8579 27.5 20 27.5C24.1421 27.5 27.5 24.1421 27.5 20C27.5 15.8579 24.1421 12.5 20 12.5C17.9616 12.5001 16.114 13.3128 14.7617 14.6328L14.4121 14.2754L14.0625 13.917C15.594 12.4219 17.6901 11.5001 20 11.5ZM13.5508 14.4668C13.7139 14.2769 13.8835 14.0927 14.0625 13.918L14.4121 14.2754L14.7607 14.6328C14.5865 14.8029 14.4207 14.9816 14.2637 15.168H17.0508V16.168H12.5508V11.668H13.5508V14.4668Z" fill="black"/>
</svg>
